<svg xmlns="http://www.w3.org/2000/svg" preserveAspectRatio="xMidYMid meet" viewBox="0 0 644.8 176" enable-background="new 0 0 644.8 176"><g><g><path d="M202 78h-38.4c-5.6 0-10.2 4.6-10.2 10.2s4.6 10.2 10.2 10.2h38.4c5.6 0 10.2-4.6 10.2-10.2s-4.5-10.2-10.2-10.2z"/><path d="M298 88.2l33.9-42.3c3.5-4.2 2.8-10.9-1.4-14.5-1.8-1.4-4.2-2.1-6.3-2.1-3.2 0-6 1.4-7.8 3.9l-36 44.8h-26.1v-38.4c0-5.6-4.6-10.2-10.2-10.2s-10.2 4.6-10.2 10.2v97c0 5.6 4.6 10.2 10.2 10.2s10.2-4.6 10.2-10.2v-38.1h25.7l36 44.4c1.8 2.5 4.9 3.9 7.8 3.9 2.5 0 4.6-.7 6.3-2.1 2.1-1.8 3.5-4.2 3.9-6.7.4-2.8-.4-5.3-2.1-7.4l-33.9-42.4z"/><path d="M413.3 29.3h-21.5c-12.7 0-23.6 4.9-31.7 14.1-7.1 8.1-10.9 19-10.9 30v30c0 10.9 3.9 21.9 10.9 30 8.1 9.2 19 14.1 31.7 14.1h21.5c12.7 0 23.6-4.9 31.7-14.1 7.1-8.1 10.9-19 10.9-30v-30c0-10.9-3.9-21.9-10.9-30-8.1-9.2-19.3-14.1-31.7-14.1zm-44.1 43.7c0-15.5 11.3-23.6 22.6-23.6h21.5c11.3 0 22.6 8.1 22.6 23.6v30c0 15.5-11.3 23.6-22.6 23.6h-21.5c-11.3 0-22.6-8.1-22.6-23.6v-30z"/><path d="M632.7 43.4c-8.1-9.2-19-14.1-31.7-14.1h-8.5c-12.7 0-23.6 4.9-31.7 14.1l-1.1 1.1-1.1-1.1c-8.1-9.2-19-14.1-31.7-14.1h-8.1c-12.7 0-23.6 4.9-31.7 14.1-7.1 8.1-10.9 19-10.9 30v63.5c0 5.6 4.6 10.2 10.2 10.2s10.2-4.6 10.2-10.2v-63.5c0-15.5 11.3-23.6 22.6-23.6h8.5c11.3 0 22.6 8.1 22.6 23.6v63.5c0 5.6 4.6 10.2 10.2 10.2s10.2-4.6 10.2-10.2v-63.5c0-15.5 11.3-23.6 22.6-23.6h8.5c11.3 0 22.6 8.1 22.6 23.6v63.5c0 5.6 4.6 10.2 10.2 10.2s10.2-4.6 10.2-10.2v-63.5c-.8-11.3-5-22.2-12.1-30z"/></g><g><path fill="#41C7F1" d="M77.2 99.1l-72.7-72.7c-6-6-6-15.5 0-21.5l.4-.4c6-6 15.5-6 21.5 0l72.7 72.7c6 6 6 15.5 0 21.5l-.4.4c-6 6-15.5 6-21.5 0z"/><path fill="#A784BC" d="M149.5 171.5l-72.7-72.7c-6-6-6-15.5 0-21.5l.4-.4c6-6 15.5-6 21.5 0l72.7 72.7c6 6 6 15.5 0 21.5l-.4.4c-6 6-15.5 6-21.5 0z"/><path fill="#4279BD" d="M77.2 99.1l-46.9-46.9c-6-6-6-15.5 0-21.5l.4-.4c6-6 15.5-6 21.5 0l46.9 46.9c6 6 6 15.5 0 21.5l-.4.4c-6 6-15.5 6-21.5 0z"/><path fill="#705EA9" d="M120.9 142.9l-44.1-44.1c-6-6-6-15.5 0-21.5l.4-.4c6-6 15.5-6 21.5 0l43.7 43.7c6 6 6 15.5 0 21.5l-.4.4c-5.9 6-15.5 6-21.1.4z"/><path fill="#4A54A4" d="M107.5 129.5l-30.7-30.7c-6-6-6-15.5 0-21.5l.4-.4c6-6 15.5-6 21.5 0l30.7 30.7c6 6 6 15.5 0 21.5l-.4.4c-6 6-15.5 6-21.5 0z"/><path fill="#D41A64" d="M149.5 5l-144.7 144.6c-6 6-6 15.5 0 21.5l.4.4c6 6 15.5 6 21.5 0l144.6-144.6c6-6 6-15.5 0-21.5l-.4-.4c-5.9-6-15.4-6-21.4 0z"/><path fill="#BC1E67" d="M118.4 36l-93.8 93.8c-6 6-6 15.5 0 21.5l.4.4c6 6 15.5 6 21.5 0l93.8-93.8c6-6 6-15.5 0-21.5l-.4-.4c-6-5.6-15.8-5.6-21.5 0z"/><g><g fill="#010101"><path d="M102.6 51.9l-64.2 64.2c-6 6-6 15.5 0 21.5l.4.4c6 6 15.5 6 21.5 0l64.2-64.2c6-6 6-15.5 0-21.5l-.4-.4c-6-6-15.5-6-21.5 0z"/><path d="M98.7 120.7l-55.7-55.7c-6-6-6-15.5 0-21.5l.4-.4c6-6 15.5-6 21.5 0l55.7 55.7c6 6 6 15.5 0 21.5l-.4.4c-6 6-15.5 6-21.5 0z"/></g><g fill="#030305"><path d="M102.6 51.9l-64.2 64.2c-6 6-6 15.5 0 21.5l.4.4c6 6 15.5 6 21.5 0l64.2-64.2c6-6 6-15.5 0-21.5l-.4-.4c-6-6-15.5-6-21.5 0z"/><path d="M98.7 120.7l-55.7-55.7c-6-6-6-15.5 0-21.5l.4-.4c6-6 15.5-6 21.5 0l55.7 55.7c6 6 6 15.5 0 21.5l-.4.4c-6 6-15.5 6-21.5 0z"/></g></g></g></g></svg>